<?xml version="1.0" standalone="no"?>
<!DOCTYPE svg PUBLIC "-//W3C//DTD SVG 20010904//EN"
 "http://www.w3.org/TR/2001/REC-SVG-20010904/DTD/svg10.dtd">
<svg version="1.0" xmlns="http://www.w3.org/2000/svg"
 width="175.000000pt" height="211.000000pt" viewBox="0 0 175.000000 211.000000"
 preserveAspectRatio="xMidYMid meet">

<g transform="translate(0.000000,211.000000) scale(0.100000,-0.100000)"
fill="#000000" stroke="none">
<path d="M589 1863 l-24 -28 28 24 c25 23 32 31 24 31 -2 0 -14 -12 -28 -27z"/>
<path d="M1040 1865 c0 -3 11 -22 25 -43 73 -111 82 -405 21 -704 -41 -198
-81 -260 -193 -293 -49 -15 -71 -16 -140 -8 -94 11 -125 28 -152 81 -22 45
-54 178 -77 332 -22 143 -26 459 -6 505 7 17 9 26 4 20 -17 -17 -81 -172 -96
-232 -23 -88 -37 -260 -46 -558 -5 -159 -17 -342 -29 -445 -12 -96 -24 -253
-28 -347 l-6 -173 608 0 608 0 -7 43 c-4 23 -11 130 -16 238 -8 179 -26 375
-36 390 -2 4 -8 62 -14 130 -13 157 -45 270 -120 429 -33 69 -67 152 -76 185
-23 84 -59 167 -104 241 -21 35 -42 74 -46 86 -17 56 -74 150 -74 123z"/>
<path d="M970 1650 c0 -38 4 -50 15 -50 16 0 21 52 9 84 -12 32 -24 15 -24
-34z"/>
<path d="M576 1517 c-29 -10 -35 -41 -10 -51 31 -12 111 -6 124 9 28 33 -52
63 -114 42z"/>
<path d="M963 1520 c-32 -13 -30 -48 2 -56 36 -9 95 4 102 23 13 34 -52 54
-104 33z"/>
<path d="M985 1439 c-8 -12 36 -22 47 -11 6 6 0 11 -17 14 -14 3 -28 2 -30 -3z"/>
<path d="M618 1428 c5 -5 16 -8 23 -6 8 3 3 7 -10 11 -17 4 -21 3 -13 -5z"/>
<path d="M1006 1387 c-17 -13 -18 -19 -6 -100 7 -48 16 -89 21 -92 12 -8 31
70 32 139 2 65 -11 80 -47 53z"/>
<path d="M667 1023 c-37 -10 -13 -37 43 -51 63 -15 215 -11 248 7 34 18 27 38
-15 45 -43 7 -248 6 -276 -1z"/>
</g>
</svg>
